HIERARCHY
ROOT root
{
	OFFSET	0	13.1	24.9
	CHANNELS 6  Xposition Yposition Zposition Xrotation Yrotation Zrotation
	JOINT spine_1
	{
		OFFSET	0	9.99999	0
		CHANNELS 3  Xrotation Yrotation Zrotation
		JOINT spine_2
		{
			OFFSET	0	112	-10
			CHANNELS 3  Xrotation Yrotation Zrotation
			JOINT spine_3
			{
				OFFSET	0	206.5	19.3
				CHANNELS 3  Xrotation Yrotation Zrotation
				JOINT spine_4
				{
					OFFSET	0	110.4	14.6
					CHANNELS 3  Xrotation Yrotation Zrotation
					JOINT neck_1
					{
						OFFSET	0	71.8	-50.3
						CHANNELS 3  Xrotation Yrotation Zrotation
						JOINT neck_2
						{
							OFFSET	0	86.2	-25.8
							CHANNELS 3  Xrotation Yrotation Zrotation
							JOINT head_ee
							{
								OFFSET	0	179.8	-8.7
								CHANNELS 3  Xrotation Yrotation Zrotation
								End Site
								{
									OFFSET	1	0	0
								}
							}
						}
					}
					JOINT left_clavicle
					{
						OFFSET	-43.2	22.4	-70.8
						CHANNELS 3  Xrotation Yrotation Zrotation
						JOINT left_shoulder
						{
							OFFSET	-93.9	-5.79999	48.7
							CHANNELS 3  Xrotation Yrotation Zrotation
							JOINT left_elbow
							{
								OFFSET	-291.4	-30.8	15.2
								CHANNELS 3  Xrotation Yrotation Zrotation
								JOINT left_lowarm_twist
								{
									OFFSET	-110.7	-3.89999	13.6
									CHANNELS 3  Xrotation Yrotation Zrotation
									JOINT left_hand
									{
										OFFSET	-110.7	-3.89999	13.6
										CHANNELS 3  Xrotation Yrotation Zrotation
										JOINT left_ee
										{
											OFFSET	-80.8	-5.10001	12.1
											CHANNELS 3  Xrotation Yrotation Zrotation
											End Site
											{
												OFFSET	1	0	0
											}
										}
									}
								}
							}
						}
					}
					JOINT right_clavicle
					{
						OFFSET	43.2	22.4	-70.8
						CHANNELS 3  Xrotation Yrotation Zrotation
						JOINT right_shoulder
						{
							OFFSET	93.9	-5.79999	48.7
							CHANNELS 3  Xrotation Yrotation Zrotation
							JOINT right_elbow
							{
								OFFSET	291.4	-30.8	15.2
								CHANNELS 3  Xrotation Yrotation Zrotation
								JOINT right_lowarm_twist
								{
									OFFSET	110.7	-3.89999	13.6
									CHANNELS 3  Xrotation Yrotation Zrotation
									JOINT right_hand
									{
										OFFSET	110.7	-3.89999	13.6
										CHANNELS 3  Xrotation Yrotation Zrotation
										JOINT right_ee
										{
											OFFSET	80.8	-5.10001	12.1
											CHANNELS 3  Xrotation Yrotation Zrotation
											End Site
											{
												OFFSET	1	0	0
											}
										}
									}
								}
							}
						}
					}
				}
			}
		}
	}
	JOINT left_hip
	{
		OFFSET	-82.8	-127.5	0.300001
		CHANNELS 3  Xrotation Yrotation Zrotation
		JOINT left_knee
		{
			OFFSET	-28.2	-396.7	2.2
			CHANNELS 3  Xrotation Yrotation Zrotation
			JOINT left_ankle
			{
				OFFSET	-11.7	-411.3	35.4
				CHANNELS 3  Xrotation Yrotation Zrotation
				JOINT left_toes
				{
					OFFSET	0	-60	-88.6
					CHANNELS 3  Xrotation Yrotation Zrotation
					JOINT left_foot_ee
					{
						OFFSET	-22.5	-16.5	-42.2
						CHANNELS 3  Xrotation Yrotation Zrotation
						End Site
						{
							OFFSET	1	0	0
						}
					}
				}
			}
		}
	}
	JOINT right_hip
	{
		OFFSET	82.8	-127.5	0.300001
		CHANNELS 3  Xrotation Yrotation Zrotation
		JOINT right_knee
		{
			OFFSET	28.2	-396.7	2.2
			CHANNELS 3  Xrotation Yrotation Zrotation
			JOINT right_ankle
			{
				OFFSET	11.7	-411.3	35.4
				CHANNELS 3  Xrotation Yrotation Zrotation
				JOINT right_toes
				{
					OFFSET	0	-60	-88.6
					CHANNELS 3  Xrotation Yrotation Zrotation
					JOINT right_foot_ee
					{
						OFFSET	22.5	-16.5	-42.2
						CHANNELS 3  Xrotation Yrotation Zrotation
						End Site
						{
							OFFSET	1	0	0
						}
					}
				}
			}
		}
	}
}
MOTION
Frames: 9
Frame Time: 0.02
1372.05 701.618 -1475.22 -17.0578 82.037 19.697 2.81039 -0.0310523 -0.713605 2.81067 0.0144179 -0.714134 2.81041 0.129915 -0.702366 2.80972 0.017362 -0.714069 -25.3346 5.30478 0.674046 -25.5383 9.94449 3.35482 -0.0 0.0 -0.0 0.0664994 -0.408639 0.0800206 2.93417 -19.2584 63.7934 3.56168 -60.4411 2.0751 -41.6028 -3.12321 4.17338 0.300091 18.4714 9.31902 -0.0 0.0 -0.0 4.52092 9.98527 -8.18877 -38.3728 39.7339 -70.2223 0.358285 10.0645 -0.0315492 43.9405 0.569932 5.44857 3.673 -30.6468 -33.4407 0.0 0.0 0.0 -16.0617 18.6582 -0.914674 2.09223 -0.0917946 -0.307907 35.8694 -18.8697 -4.91564 -26.7241 0.0 0.0 -0.0 0.0 -0.0 30.4417 10.1043 -11.9819 3.04104 0.137123 0.446417 -23.9416 2.36187 -3.66856 21.8645 -0.0 -0.0 0.0 0.0 0.0 
1348.75 697.825 -1476.73 -22.1821 83.0759 24.3808 2.73022 -0.220966 -0.708463 2.73048 -0.175438 -0.721087 2.73264 -0.0553174 -0.740056 2.73192 -0.171498 -0.722034 -24.6054 4.80714 0.656613 -24.7641 8.98993 3.016 -0.0 0.0 -0.0 0.222983 1.03619 0.549085 2.64972 -19.5126 64.8808 3.38039 -59.1414 1.91842 -41.3732 -3.09837 4.15753 0.0829294 18.4343 7.98012 -0.0 0.0 -0.0 4.41852 8.96992 -8.04309 -39.0889 39.9344 -68.5096 0.410057 11.4825 -0.0412273 44.6657 0.613923 5.53027 3.82795 -30.5997 -34.4743 0.0 0.0 0.0 -16.1019 18.8753 -0.679975 0.870802 -0.0368368 -0.12855 35.0252 -17.0523 -4.76476 -25.4315 0.0 0.0 -0.0 0.0 -0.0 29.711 9.69368 -11.3202 2.37902 0.105253 0.349851 -24.5389 -0.0874272 -3.73214 19.8551 -0.0 -0.0 0.0 0.0 0.0 
1323.62 697.231 -1479.84 -23.4652 83.6168 25.7517 2.59298 -0.0397829 -0.762141 2.59331 0.00879335 -0.763128 2.59312 0.135152 -0.751117 2.59233 0.0148345 -0.763035 -23.9551 4.31658 -0.14501 -24.0893 8.39108 1.97556 -0.0 0.0 -0.0 -0.0055999 2.06777 0.235598 0.248532 -19.4234 65.5761 3.65143 -61.0482 2.1534 -40.4757 -3.00189 4.09461 -0.232524 14.7915 4.60911 -0.0 0.0 -0.0 4.79125 8.36889 -8.8516 -40.9179 42.218 -67.9963 0.359408 10.0954 -0.0317457 44.602 0.610018 5.52312 3.62184 -30.1848 -33.0559 0.0 0.0 0.0 -16.1706 19.1982 -1.70121 -0.440367 0.0178823 0.0652131 35.594 -14.3176 -4.73409 -26.8582 0.0 0.0 -0.0 0.0 -0.0 29.1356 10.9083 -11.4663 0.563391 0.0236089 0.0832322 -24.2568 0.843739 -3.69894 22.9505 -0.0 -0.0 0.0 0.0 0.0 
1298.05 699.366 -1478.21 -20.462 84.5957 22.0295 2.58656 -0.0496316 -0.734902 2.58686 -0.00276855 -0.736571 2.58683 0.119427 -0.72683 2.58609 0.00314184 -0.736569 -23.9862 4.09059 0.503975 -24.0972 7.67089 2.46671 -0.0 0.0 -0.0 0.291154 0.747204 0.646318 -0.634286 -19.6631 66.6707 3.03384 -56.3489 1.62526 -40.7963 -3.03624 4.11726 -0.428464 15.5792 3.71467 -0.0 0.0 -0.0 4.75604 8.27935 -8.78419 -40.3799 41.6151 -68.3847 0.315918 8.89465 -0.0245712 44.02 0.5747 5.45755 3.72491 -29.7069 -33.6971 0.0 0.0 0.0 -15.9267 19.1504 -1.93545 -1.74457 0.0678908 0.259112 35.2402 -12.4456 -4.64723 -27.3151 0.0 0.0 -0.0 0.0 -0.0 28.9698 11.3279 -10.8123 -4.45724 -0.157685 -0.665707 -22.417 1.0002 -3.42036 24.1172 -0.0 -0.0 0.0 0.0 0.0 
1274.83 702.239 -1477.55 -26.0099 85.7938 27.0722 2.73315 0.112073 -0.460839 2.73325 0.14117 -0.452774 2.7321 0.213234 -0.423633 2.73188 0.143654 -0.451992 -24.4615 2.30262 -0.840714 -24.505 4.80307 0.360898 -0.0 0.0 -0.0 -0.285675 3.82139 -0.0757571 -3.10325 -20.5811 67.4428 3.14274 -57.2736 1.7164 -40.9233 -3.04989 4.12618 -0.0735267 12.5267 4.6943 -0.0 0.0 -0.0 4.64085 8.94855 -8.50493 -39.6564 42.8526 -66.4787 0.462369 12.9009 -0.0522758 42.6344 0.493334 5.30006 3.58389 -30.3543 -32.8218 0.0 0.0 0.0 -14.5719 18.6438 -2.27332 -5.60436 0.189842 0.838812 34.5075 -11.564 -4.55235 -26.5817 0.0 0.0 -0.0 0.0 -0.0 27.5028 10.2821 -9.75035 -6.52833 -0.213217 -0.978679 -17.9321 -3.84469 -2.70316 25.9538 -0.0 -0.0 0.0 0.0 0.0 
1247.51 703.14 -1481.9 -22.5258 86.8485 23.6176 2.69812 0.103034 -0.444137 2.69822 0.131087 -0.436681 2.69719 0.200906 -0.409281 2.69698 0.133747 -0.435873 -24.2561 1.27975 -0.507043 -24.2695 2.6888 0.158223 -0.0 0.0 -0.0 -0.696806 3.66311 -0.860762 -6.82001 -21.9038 66.9688 3.07631 -56.715 1.66069 -39.8441 -2.9346 4.04944 -0.0538468 10.6158 4.04714 -0.0 0.0 -0.0 3.90199 6.23766 -7.16144 -39.683 43.5531 -65.0989 0.607569 16.7504 -0.0894502 39.7287 0.335228 4.96373 2.71683 -29.946 -27.2409 0.0 0.0 0.0 -12.5159 18.192 -3.67883 -10.9909 0.294218 1.6585 34.3715 -7.66207 -4.45581 -24.807 0.0 0.0 -0.0 0.0 -0.0 25.4663 9.51085 -10.168 -7.86338 -0.243 -1.18138 -15.2536 -7.61468 -2.28738 33.4671 -0.0 -0.0 0.0 0.0 0.0 
1227.15 703.64 -1480.98 -11.6885 85.7234 12.0815 2.70882 0.0907953 -0.242241 2.70885 0.106026 -0.235972 2.7084 0.143235 -0.215426 2.70835 0.107415 -0.235343 -24.0255 0.736207 -1.11193 -24.0292 1.90722 -0.672968 -0.0 0.0 -0.0 -1.10053 3.47824 -1.63919 -8.39345 -21.1523 68.2202 2.62234 -52.4018 1.29057 -36.078 -2.54404 3.76499 -0.0410538 10.7944 4.20137 -0.0 0.0 -0.0 3.2264 6.49706 -5.77074 -37.9389 45.9709 -66.0618 0.604964 16.6826 -0.0887012 37.7531 0.237582 4.73073 2.64118 -29.9692 -26.7796 0.0 0.0 0.0 -11.3067 18.6503 -3.4759 -16.3466 0.321248 2.47949 33.0412 -5.22934 -4.28292 -23.429 0.0 0.0 -0.0 0.0 -0.0 23.4416 9.10847 -9.48623 -8.44499 -0.254496 -1.26989 -11.7985 -6.66909 -1.76404 32.2428 -0.0 -0.0 0.0 0.0 0.0 
1201.4 706.262 -1487.69 3.1853 86.2654 -3.05383 2.64767 0.0546054 0.0641992 2.64768 0.0504096 0.0675438 2.64773 0.03859 0.0749273 2.64773 0.0499391 0.0678924 -27.7314 -0.978417 -1.75048 -27.7261 -1.2272 -2.17595 -0.0 0.0 -0.0 -1.51584 4.17009 -2.31272 -11.4123 -21.6538 68.214 2.46601 -50.6881 1.16814 -35.1078 -2.44654 3.68762 0.0348458 11.7045 5.05201 -0.0 0.0 -0.0 2.43245 5.30026 -4.26081 -35.2336 47.1527 -68.5287 0.617754 17.0151 -0.0924082 34.4413 0.0921346 4.33315 2.10934 -29.8578 -23.552 0.0 0.0 0.0 -7.68056 18.6768 -5.0008 -23.6133 0.235265 3.59044 31.793 -4.22423 -4.14128 -22.6431 0.0 0.0 -0.0 0.0 -0.0 19.085 8.81185 -9.76454 -7.80366 -0.241768 -1.1723 -5.59962 -9.27317 -0.829135 36.111 -0.0 -0.0 0.0 0.0 0.0 
1185.25 709.617 -1493.62 13.0814 86.0693 -12.8992 2.67593 0.117987 0.389797 2.67601 0.0929439 0.396515 2.67664 0.0265385 0.406397 2.67642 0.0903877 0.397105 -29.3351 -1.10323 -0.707599 -29.3425 -1.86943 -1.30436 -0.0 0.0 -0.0 -1.7917 3.57096 -2.91831 -12.043 -21.8496 68.4458 2.02542 -45.0902 0.8409 -31.3148 -2.07835 3.36972 0.151171 12.4567 6.09014 -0.0 0.0 -0.0 2.49441 4.31617 -4.46641 -27.9191 48.3443 -66.0894 0.665429 18.2441 -0.106848 29.478 -0.082195 3.72345 1.07074 -28.833 -17.2734 0.0 0.0 0.0 -6.87414 16.7436 -5.14773 -25.1221 0.199788 3.81925 31.6802 -4.17705 -4.12896 -22.2556 0.0 0.0 -0.0 0.0 -0.0 17.2245 8.67589 -10.3984 -7.10928 -0.226758 -1.0668 -5.76891 -10.6576 -0.854949 40.1538 -0.0 -0.0 0.0 0.0 0.0 
